#N canvas 625 9 1448 759 10;
#X declare -lib mrpeach;
#X obj 24 29 import mrpeach;
#X obj 247 20 udpreceive 5555;
#X obj 169 132 print;
#X floatatom 27 461 5 0 0 0 - - -;
#X floatatom 66 461 5 0 0 0 - - -;
#X floatatom 111 462 5 0 0 0 - - -;
#X floatatom 156 462 5 0 0 0 - - -;
#X floatatom 205 462 5 0 0 0 - - -;
#X floatatom 245 461 5 0 0 0 - - -;
#X floatatom 283 461 5 0 0 0 - - -;
#X floatatom 320 460 5 0 0 0 - - -;
#X floatatom 357 459 5 0 0 0 - - -;
#X floatatom 393 459 5 0 0 0 - - -;
#X floatatom 429 458 5 0 0 0 - - -;
#X floatatom 470 458 5 0 0 0 - - -;
#X floatatom 507 457 5 0 0 0 - - -;
#X floatatom 546 456 5 0 0 0 - - -;
#X floatatom 586 455 5 0 0 0 - - -;
#X floatatom 624 454 5 0 0 0 - - -;
#X floatatom 666 453 5 0 0 0 - - -;
#X floatatom 703 452 5 0 0 0 - - -;
#X floatatom 744 452 5 0 0 0 - - -;
#X floatatom 782 451 5 0 0 0 - - -;
#X floatatom 818 450 5 0 0 0 - - -;
#X floatatom 855 450 5 0 0 0 - - -;
#X floatatom 893 449 5 0 0 0 - - -;
#X floatatom 928 448 5 0 0 0 - - -;
#X floatatom 963 448 5 0 0 0 - - -;
#X floatatom 1002 448 5 0 0 0 - - -;
#X floatatom 1041 448 5 0 0 0 - - -;
#X floatatom 1081 447 5 0 0 0 - - -;
#X floatatom 1121 444 5 0 0 0 - - -;
#X floatatom 1160 443 5 0 0 0 - - -;
#X floatatom 1199 442 5 0 0 0 - - -;
#X floatatom 1237 441 5 0 0 0 - - -;
#X floatatom 1276 441 5 0 0 0 - - -;
#X floatatom 1318 439 5 0 0 0 - - -;
#X floatatom 1356 438 5 0 0 0 - - -;
#X text 789 472 1;
#X text 934 474 2;
#X text 1086 470 3;
#X text 1245 466 4;
#X obj 281 226 unpack 0 0 0 0 0 0 0 0 0 0 0 0 0 0 0 0 0 0 0 0 0 0 0
0 0 0 0 0 0 0 0 0 0 0 0 0;
#X floatatom 1401 435 5 0 0 0 - - -;
#X text 1409 462 5;
#X obj 782 222 r notes;
#X floatatom 782 511 5 0 0 0 - - -;
#X obj 782 552 mtof;
#X obj 782 616 osc~;
#X obj 782 680 *~;
#X obj 782 722 dac~;
#X floatatom 818 648 5 0 0 0 - - -;
#X obj 928 223 r notes;
#X floatatom 928 508 5 0 0 0 - - -;
#X obj 928 549 mtof;
#X obj 928 613 osc~;
#X obj 928 677 *~;
#X obj 928 719 dac~;
#X floatatom 964 645 5 0 0 0 - - -;
#X obj 1081 220 r notes;
#X floatatom 1081 499 5 0 0 0 - - -;
#X obj 1081 540 mtof;
#X obj 1081 604 osc~;
#X obj 1081 668 *~;
#X obj 1082 717 dac~;
#X floatatom 1117 636 5 0 0 0 - - -;
#X obj 1237 222 r notes;
#X floatatom 1237 500 5 0 0 0 - - -;
#X obj 1237 541 mtof;
#X obj 1237 605 osc~;
#X obj 1237 669 *~;
#X obj 1237 711 dac~;
#X floatatom 1273 637 5 0 0 0 - - -;
#X obj 1401 222 r notes;
#X floatatom 1401 486 5 0 0 0 - - -;
#X obj 1401 527 mtof;
#X obj 1401 591 osc~;
#X obj 1401 655 *~;
#X obj 1401 697 dac~;
#X floatatom 1437 623 5 0 0 0 - - -;
#X floatatom 603 565 5 0 0 0 - - -;
#N canvas 366 177 450 300 two_notes 0;
#X obj 81 45 inlet;
#X obj 81 75 metro 500;
#X obj 81 110 tgl 15 0 empty empty empty 17 7 0 10 -262144 -1 -1 0
1;
#X obj 81 137 sel 0 1;
#X msg 68 179 55;
#X msg 113 180 67;
#X floatatom 70 222 5 0 0 0 - - -;
#X obj 70 251 outlet;
#X connect 0 0 1 0;
#X connect 1 0 2 0;
#X connect 2 0 3 0;
#X connect 3 0 4 0;
#X connect 3 1 5 0;
#X connect 4 0 6 0;
#X connect 5 0 6 0;
#X connect 6 0 7 0;
#X restore 707 74 pd two_notes;
#X obj 707 43 tgl 15 0 empty empty empty 17 7 0 10 -262144 -1 -1 0
1;
#X floatatom 707 118 5 0 0 0 - - -;
#X obj 706 176 s notes;
#X connect 1 0 2 0;
#X connect 1 0 42 0;
#X connect 22 0 46 0;
#X connect 26 0 53 0;
#X connect 30 0 60 0;
#X connect 34 0 67 0;
#X connect 42 0 3 0;
#X connect 42 1 4 0;
#X connect 42 2 5 0;
#X connect 42 3 6 0;
#X connect 42 4 7 0;
#X connect 42 5 8 0;
#X connect 42 6 9 0;
#X connect 42 7 10 0;
#X connect 42 8 11 0;
#X connect 42 9 12 0;
#X connect 42 10 13 0;
#X connect 42 11 14 0;
#X connect 42 12 15 0;
#X connect 42 13 16 0;
#X connect 42 14 17 0;
#X connect 42 15 18 0;
#X connect 42 16 19 0;
#X connect 42 17 20 0;
#X connect 42 18 21 0;
#X connect 42 19 22 0;
#X connect 42 20 23 0;
#X connect 42 21 24 0;
#X connect 42 22 25 0;
#X connect 42 23 26 0;
#X connect 42 24 27 0;
#X connect 42 25 28 0;
#X connect 42 26 29 0;
#X connect 42 27 30 0;
#X connect 42 28 31 0;
#X connect 42 29 32 0;
#X connect 42 30 33 0;
#X connect 42 31 34 0;
#X connect 42 32 35 0;
#X connect 42 33 36 0;
#X connect 42 34 37 0;
#X connect 42 35 43 0;
#X connect 43 0 74 0;
#X connect 45 0 22 0;
#X connect 46 0 47 0;
#X connect 47 0 48 0;
#X connect 48 0 49 0;
#X connect 49 0 50 0;
#X connect 49 0 50 1;
#X connect 51 0 49 1;
#X connect 52 0 26 0;
#X connect 53 0 54 0;
#X connect 54 0 55 0;
#X connect 55 0 56 0;
#X connect 56 0 57 0;
#X connect 56 0 57 1;
#X connect 58 0 56 1;
#X connect 59 0 30 0;
#X connect 60 0 61 0;
#X connect 61 0 62 0;
#X connect 62 0 63 0;
#X connect 63 0 64 0;
#X connect 63 0 64 1;
#X connect 65 0 63 1;
#X connect 66 0 34 0;
#X connect 67 0 68 0;
#X connect 68 0 69 0;
#X connect 69 0 70 0;
#X connect 70 0 71 0;
#X connect 70 0 71 1;
#X connect 72 0 70 1;
#X connect 73 0 43 0;
#X connect 74 0 75 0;
#X connect 75 0 76 0;
#X connect 76 0 77 0;
#X connect 77 0 78 0;
#X connect 77 0 78 1;
#X connect 79 0 77 1;
#X connect 80 0 51 0;
#X connect 80 0 58 0;
#X connect 80 0 65 0;
#X connect 80 0 72 0;
#X connect 81 0 83 0;
#X connect 82 0 81 0;
#X connect 83 0 84 0;
